<svg xmlns="http://www.w3.org/2000/svg" xml:space="preserve" width="10cm" height="10cm" version="1.1" style="shape-rendering:geometricPrecision; text-rendering:geometricPrecision; image-rendering:optimizeQuality; fill-rule:evenodd; clip-rule:evenodd"
viewBox="0 0 10000 10000"
 xmlns:xlink="http://www.w3.org/1999/xlink">
 <defs>
  <style type="text/css">
   <![CDATA[
    .fil3 {fill:#020401}
    .fil6 {fill:#140900}
    .fil7 {fill:#171203}
    .fil14 {fill:#47C879}
    .fil8 {fill:#C3A83B}
    .fil2 {fill:#C3A83B}
    .fil10 {fill:#C4AB47}
    .fil12 {fill:#CFB33C}
    .fil1 {fill:#DBBF4F}
    .fil5 {fill:#E5C545}
    .fil4 {fill:#E5C545}
    .fil0 {fill:#E6C744}
    .fil11 {fill:#EBD16A}
    .fil9 {fill:#EBD265}
    .fil17 {fill:#EBECEB}
    .fil15 {fill:#F7F7F6}
    .fil16 {fill:#FCFBFC}
    .fil13 {fill:#FEFEFE}
   ]]>
  </style>
 </defs>
 <g id="Layer_x0020_1">
  <metadata id="CorelCorpID_0Corel-Layer"/>
  <rect class="fil0" width="10000" height="10000"/>
  <g id="_1200937328">
   <rect class="fil1" y="1276" width="10000" height="178"/>
   <rect class="fil1" y="2730" width="10000" height="178"/>
   <rect class="fil1" y="4184" width="10000" height="178"/>
   <rect class="fil1" y="5638" width="10000" height="178"/>
   <rect class="fil1" y="7092" width="10000" height="178"/>
   <rect class="fil1" y="8546" width="10000" height="178"/>
   <rect class="fil1" transform="matrix(4.16827E-014 1.57385 -0.862408 2.28405E-014 8724.27 9.91677E-005)" width="6354" height="207"/>
   <rect class="fil1" transform="matrix(4.16827E-014 1.57385 -0.862408 2.28405E-014 7270.23 9.91678E-005)" width="6354" height="207"/>
   <rect class="fil1" transform="matrix(4.16827E-014 1.57385 -0.862408 2.28405E-014 5816.18 9.91678E-005)" width="6354" height="207"/>
   <rect class="fil1" transform="matrix(4.16827E-014 1.57385 -0.862408 2.28405E-014 4362.13 9.91678E-005)" width="6354" height="207"/>
   <rect class="fil1" transform="matrix(4.16827E-014 1.57385 -0.862408 2.28405E-014 2908.08 9.91679E-005)" width="6354" height="207"/>
   <rect class="fil1" transform="matrix(4.16827E-014 1.57385 -0.862408 2.28405E-014 1454.04 9.91679E-005)" width="6354" height="207"/>
  </g>
  <g id="_1200900592">
   <path class="fil2" d="M2860 3756c-119,-294 -62,-618 152,-853 222,-243 651,-156 943,-120 60,6 120,14 180,24 117,20 232,46 348,70 36,7 74,15 112,22 0,-4 0,-8 0,-11 6,-77 68,-109 132,-127 10,-3 21,-6 31,-9 275,-89 520,-78 803,-57l14 2 3 0c86,12 175,18 259,40 53,14 102,35 150,62l85 48 -15 41c266,-57 529,-124 805,-139 156,-8 448,-9 589,56 134,62 248,212 312,342 81,165 121,377 15,539 -48,256 -65,502 -51,763 13,256 45,511 67,763l86 734c38,270 177,697 -6,929 -151,190 -464,369 -674,493 -115,69 -231,136 -344,209 -85,55 -179,118 -253,189 -90,86 -189,184 -302,240 -70,35 -145,53 -223,66 -106,19 -216,29 -324,42 -192,35 -376,56 -571,44 -185,-11 -373,-47 -557,-75 -215,-32 -333,-54 -500,-199 -83,-73 -221,-181 -288,-282 -206,-85 -397,-225 -587,-339 -230,-139 -411,-236 -552,-476l-3 -5 -2 -5c-178,-389 89,-1046 127,-1463 23,-241 54,-480 73,-721 20,-261 33,-582 -34,-837z"/>
   <path class="fil3" d="M2561 3335c-120,-294 -63,-618 151,-852 223,-244 651,-157 943,-121 60,6 120,14 180,24 117,20 232,46 348,70 36,7 74,15 112,22 0,-4 0,-7 0,-11 6,-77 68,-108 132,-127 10,-3 21,-6 31,-9 275,-89 520,-78 803,-57l15 2 2 0c86,12 175,18 259,40 53,14 102,35 151,62l84 48 -15 41c267,-57 529,-124 805,-139 157,-8 448,-9 589,56 134,62 248,212 312,342 81,165 121,377 15,539 -48,256 -65,502 -51,763 13,256 45,511 68,763l85 734c39,270 177,697 -6,929 -150,190 -464,369 -674,494 -115,68 -231,136 -343,208 -86,55 -180,118 -254,189 -90,86 -188,184 -301,240 -71,35 -146,53 -223,67 -107,18 -217,29 -325,41 -191,35 -375,56 -571,44 -185,-11 -373,-47 -557,-75 -215,-32 -333,-54 -500,-199 -83,-73 -220,-180 -288,-282 -205,-85 -397,-225 -586,-339 -231,-139 -412,-236 -553,-476l-3 -5 -2 -5c-178,-389 89,-1045 128,-1463 22,-241 53,-480 72,-721 20,-261 34,-582 -33,-837z"/>
   <path class="fil4" d="M4458 2613c-218,-10 -523,-111 -815,-137 -289,-36 -669,-111 -847,83 -168,185 -243,461 -127,740 120,446 11,1122 -34,1604 -37,402 -293,1065 -137,1405 126,215 284,299 513,436 188,114 405,270 606,345 38,85 202,216 284,288 137,119 220,139 442,173 455,68 633,116 1094,30 497,-57 511,-53 787,-318 287,-274 1029,-586 1261,-879 144,-182 22,-564 -18,-842l-86 -737c-23,-256 -55,-512 -68,-770 -14,-281 3,-531 56,-808l2 -7c170,-220 -73,-641 -268,-731 -90,-42 -317,-56 -535,-46 -340,19 -662,115 -989,185l52 -149c-36,-21 -76,-39 -123,-51 -71,-19 -150,-25 -245,-38l-11 -1c-268,-20 -498,-33 -759,52 -30,10 -89,21 -83,38l46 130 2 5z"/>
   <path class="fil5" d="M4458 2611c-219,-10 -522,-109 -814,-135 -146,144 -269,4 -605,284 -188,157 -225,204 -299,394l-53 117c-3,-6 -10,20 -17,28 120,446 11,1122 -34,1604 -37,402 -294,1065 -138,1405 228,41 507,169 648,302 177,165 304,250 472,479 38,85 202,216 284,288 137,119 219,139 442,173 455,68 633,116 1094,30 8,-10 17,-24 22,-32 462,-732 228,-170 1192,-845 520,-365 705,-587 816,-1162l-86 -737c-100,-87 -36,-41 -98,-147 -53,-90 20,-37 -88,-104 73,-560 -9,-785 -337,-1049l-72 -86 0 -1c-3,0 3,-2 9,-7l0 0c62,-56 57,-56 196,-71 171,-18 98,78 364,-109l1 -1 1 0 0 -1 1 0 1 -1 1 0 1 -1 1 -1 8 -6c171,-220 -72,-641 -267,-731 -173,-81 -856,-58 -1000,44l208 24c-245,49 -330,79 -466,214 -71,70 -104,117 -161,206 -117,184 -85,145 -177,173 -69,-319 43,-380 -3,-707l74 185 53 -149c-103,-64 -215,-68 -368,-89l0 0c1,0 -1,1 -4,2l-9 4c-8,3 -15,6 -22,9 -54,23 -95,28 -151,37 -33,6 -65,14 -96,29 -61,29 -73,61 -102,117 -12,24 -39,53 -66,58 -81,16 -293,50 -351,-27 -1,0 -4,-5 -5,-7z"/>
   <path class="fil6" d="M3970 5126c1,19 3,76 34,68 28,-6 31,-19 36,-46 13,-97 -16,-253 121,-261 49,-3 143,8 181,-24 18,-16 17,-41 -9,-51 -40,-13 -174,-13 -218,-3 -51,12 -98,38 -121,86 -20,43 -26,97 -27,144 0,29 1,58 3,87z"/>
   <path class="fil7" d="M4328 4101c157,-123 180,-288 81,-480 -70,-135 -57,-101 -146,-152 33,128 104,196 121,296 32,183 -64,169 -56,336z"/>
   <path class="fil6" d="M5535 5349l247 -206c1,0 66,-120 74,-133 -167,65 -349,236 -451,350 99,61 39,47 130,-11z"/>
   <path class="fil6" d="M5955 4831c-44,-10 -118,-12 -166,-17 -10,-1 -19,-2 -29,-4 -9,-1 -65,-11 -66,2 -2,17 44,68 64,71 16,3 58,-5 81,-5 39,0 97,3 123,36 12,15 8,67 9,87 2,30 2,152 13,171 17,33 69,39 73,-21 3,-42 0,-100 -4,-143 -1,-7 -2,-15 -3,-22 -8,-62 -27,-137 -95,-155z"/>
   <path class="fil8" d="M5438 7580c497,-57 511,-53 787,-318 287,-274 1029,-586 1261,-879 143,-182 21,-564 -18,-842 -111,575 -296,797 -816,1162 -964,675 -730,113 -1192,845 -5,8 -14,22 -22,32z"/>
   <path class="fil9" d="M4936 4289c-182,19 -386,110 -543,203 -103,60 -182,126 -268,208 -29,28 -58,57 -85,88 -6,6 3,4 11,3 76,0 165,-1 240,7 10,2 19,3 29,6 58,24 9,73 37,72 19,0 47,-5 66,-7 58,-7 115,-13 172,-19 228,-24 319,-67 340,-315 7,-81 5,-165 1,-246z"/>
   <path class="fil10" d="M6745 3447l114 57c303,244 382,453 358,841 -5,70 -12,139 -21,208 14,55 44,95 78,145 24,34 76,78 108,106 -23,-256 -55,-512 -68,-770 -14,-281 3,-531 56,-808l1 -7c-50,36 -177,133 -244,129 -95,-10 -109,-23 -209,14 -59,21 -117,54 -173,85z"/>
   <path class="fil11" d="M2670 3299c7,-8 14,-34 17,-28l53 -117c74,-190 111,-237 299,-394 336,-280 459,-140 605,-284 -289,-36 -669,-111 -847,83 -168,185 -243,461 -127,740z"/>
   <path class="fil8" d="M3618 7089c-168,-229 -295,-314 -472,-479 -141,-133 -420,-261 -648,-302 126,215 285,299 514,436 188,114 405,270 606,345z"/>
   <path class="fil9" d="M6569 2442c-216,-19 -772,145 -990,185l53 -149c-38,-22 -78,-41 -123,-51l-4 15c46,327 -66,388 3,707 92,-28 60,11 177,-173 57,-89 90,-136 161,-206 136,-135 221,-165 466,-214l257 -114z"/>
   <path class="fil11" d="M4458 2611c49,87 273,50 356,34 27,-5 54,-34 66,-58 29,-56 41,-88 102,-117 31,-15 63,-23 96,-29 56,-9 97,-14 151,-37 7,-3 14,-6 22,-9l9 -4c3,-1 5,-2 4,-2 -1,0 -5,0 -11,-1 -268,-20 -498,-33 -759,52 -13,4 -77,22 -83,30 -2,3 -2,5 -1,8l48 133z"/>
   <path class="fil8" d="M5594 4082l112 55c48,12 72,5 114,5 32,-197 -16,-116 -49,-281 -20,-101 7,-204 13,-262 -9,4 -18,7 -27,12 -138,87 -139,166 -108,316 24,111 50,102 -55,155z"/>
   <path class="fil12" d="M2946 3755c9,-8 -14,-64 -10,-56l138 -46c44,-35 63,-116 112,-149 -108,-67 -17,-36 -98,-54 -38,-9 -108,-26 -138,7 -6,6 6,-4 2,-17 -6,-22 -27,-23 -36,-44 -24,22 -27,23 -45,53 -59,98 -60,182 26,262 16,15 33,29 49,44z"/>
   <path class="fil8" d="M4490 5353c-4,-5 -8,-9 -12,-14 -51,-34 -93,-75 -140,-119 -40,-37 -82,-79 -119,-116 -4,-4 -8,-8 -11,-11l-25 223 307 37z"/>
   <path class="fil8" d="M5535 5349l291 -33c5,-190 4,-97 -44,-173l-247 206z"/>
   <path class="fil6" d="M4102 6944c85,-120 49,-136 -14,-223 -44,107 -24,122 14,223zm1812 0c-85,-120 -49,-136 14,-223 44,107 24,122 -14,223zm-1061 -69l0 2c53,0 104,1 155,0 51,1 102,0 155,0l0 -2c177,-5 363,-15 595,-27l122 182c149,-48 121,-61 143,-239 8,-69 14,-173 51,-231 19,-28 34,-51 51,-81 7,-13 33,-37 41,-49 54,60 82,119 169,149l6 1c42,12 46,-11 63,-42 9,-16 19,-33 28,-50 26,-46 52,-91 77,-137 15,16 24,25 38,43 34,37 60,48 109,36 66,-18 65,-71 85,-128 17,-51 37,-103 56,-155 33,-90 64,-184 98,-273 46,-120 129,-30 200,-44 40,-7 19,-42 0,-59 -42,-36 -126,-72 -182,-61 -85,16 -133,110 -167,181 -13,28 -26,56 -39,84 -80,168 -298,254 -455,332 -23,-34 -65,-109 -100,-126 -31,-16 -60,-20 -83,8 -38,46 -66,153 -79,212 -9,48 -17,95 -29,143 -25,99 -65,165 -161,210 -68,31 -429,64 -792,69l0 0c-363,-5 -724,-38 -792,-69 -96,-45 -136,-111 -161,-210 -12,-48 -20,-95 -29,-143 -12,-59 -41,-166 -79,-212 -23,-28 -52,-24 -83,-8 -35,17 -77,92 -100,126 -157,-78 -375,-164 -455,-332 -13,-28 -26,-56 -39,-84 -34,-71 -82,-165 -167,-181 -56,-11 -140,25 -182,61 -19,17 -40,52 0,59 72,14 154,-76 200,44 34,89 65,183 98,273 19,52 39,104 56,155 20,57 19,110 85,128 49,12 75,1 109,-36 14,-18 23,-27 38,-43 25,46 51,91 77,137 9,17 19,34 28,50 17,31 21,54 64,42l5 -1c88,-30 115,-89 169,-149 8,12 34,36 41,49 17,30 32,53 51,81 37,58 43,162 51,231 22,178 -6,191 143,239l122 -182c232,12 418,22 595,27zm1594 -589c-5,59 -57,164 -85,216 -10,17 -15,14 -28,2 -29,-26 -77,-112 -72,-119 7,-12 175,-93 185,-99zm-376 150c-16,-36 -1,-70 7,-107 4,-21 13,-87 44,-84 15,2 16,37 18,50 4,27 9,52 8,79 -9,22 -48,53 -66,74 -4,5 -5,-2 -11,-12zm639 -321c25,-23 -28,209 -46,228 -24,28 -56,4 -71,-20l-3 -6 -2 -7c-3,-13 -5,-28 -5,-41l-1 -62c43,-26 90,-58 128,-92zm-3141 171c5,59 57,164 85,216 10,17 15,14 28,2 29,-26 77,-112 72,-119 -7,-12 -175,-93 -185,-99zm376 150c16,-36 1,-70 -7,-107 -4,-21 -13,-87 -44,-84 -15,2 -16,37 -18,50 -4,27 -9,52 -8,79 9,22 48,53 66,74 4,5 5,-2 11,-12zm-639 -321c-25,-23 28,209 46,228 24,28 56,4 71,-20l3 -6 2 -7c3,-13 5,-28 5,-41l1 -62c-43,-26 -90,-58 -128,-92z"/>
   <path class="fil13" d="M3428 6310c3,-13 5,-28 5,-41l1 -62c-43,-26 -90,-58 -128,-92 -25,-23 28,209 46,228 24,28 56,4 71,-20l3 -6 2 -7z"/>
   <path class="fil13" d="M3569 6286c5,59 57,164 85,216 10,17 15,14 28,2 29,-26 77,-112 72,-119 -7,-12 -175,-93 -185,-99z"/>
   <path class="fil13" d="M3876 6295c-4,27 -9,52 -8,79 9,22 48,53 66,74 4,5 5,-2 11,-12 16,-36 1,-70 -7,-107 -4,-21 -13,-87 -44,-84 -15,2 -16,37 -18,50z"/>
   <path class="fil13" d="M4088 6721c-44,107 -24,122 14,223 85,-120 49,-136 -14,-223z"/>
   <path class="fil13" d="M5928 6721c-63,87 -99,103 -14,223 38,-101 58,-116 14,-223z"/>
   <path class="fil13" d="M6078 6329c-8,37 -23,71 -7,107 6,10 7,17 11,12 18,-21 57,-52 66,-74 1,-27 -4,-52 -8,-79 -2,-13 -3,-48 -18,-50 -31,-3 -40,63 -44,84z"/>
   <path class="fil13" d="M6262 6385c-5,7 43,93 72,119 13,12 18,15 28,-2 28,-52 80,-157 85,-216 -10,6 -178,87 -185,99z"/>
   <path class="fil13" d="M6583 6269c0,13 2,28 5,41l2 7 3 6c15,24 47,48 71,20 18,-19 71,-251 46,-228 -38,34 -85,66 -128,92l1 62z"/>
   <path class="fil3" d="M7196 4553c73,-560 -9,-785 -337,-1049 66,-16 192,-39 242,-83 4,-4 6,-8 9,-13 -217,4 -332,-17 -512,133 -32,26 -58,53 -85,85 -14,19 -27,38 -39,58 -346,545 -55,1005 28,1254 21,61 17,74 33,130 4,12 6,23 10,35l36 99c464,-264 479,-271 615,-649z"/>
   <path class="fil6" d="M4618 5404c-94,-158 -222,-297 -400,-359 -15,-5 -33,-8 -49,-12 20,33 21,42 50,71 37,37 79,79 119,116 68,63 125,121 213,160 10,4 61,26 69,27l-2 -3z"/>
   <path class="fil3" d="M3186 3504c-62,38 -107,60 -165,108 -67,57 -104,93 -125,181 -4,18 -8,35 -12,53 -6,23 -11,46 -17,69 -82,360 -131,830 219,1069l368 215c48,-102 34,-149 74,-265 81,-232 258,-419 153,-922 -103,-464 -310,-580 -765,-616 14,32 20,45 25,79 16,-11 29,-10 49,-11 22,0 133,9 155,17 12,4 24,12 35,19l6 4z"/>
   <path class="fil14" d="M6962 4913c141,-301 338,-826 34,-1164 -3,39 -7,77 -10,116 -7,78 -14,155 -20,232 -3,33 -6,66 -9,99 -5,66 -10,133 -17,198 -7,69 -24,103 -44,166 -10,31 -14,57 -16,90 -4,116 28,198 82,263z"/>
   <path class="fil14" d="M6585 4877c16,12 35,18 53,29 14,10 10,5 8,-18 -10,-143 -18,-177 -104,-293 -45,-60 -57,-107 -65,-181 -6,-57 -10,-142 4,-197 18,-68 41,-139 60,-206 38,-127 75,-253 112,-380 -232,142 -275,470 -263,718 7,151 48,358 144,478 16,20 31,35 51,50z"/>
   <path class="fil15" d="M6817 4712c-17,-51 -38,-57 -77,-19 -37,51 -40,119 -29,179 14,85 78,123 112,14 21,-66 14,-110 -6,-174z"/>
   <path class="fil16" d="M6859 4097c57,-64 57,-114 60,-196 2,-95 8,-243 -97,-289 -73,-32 -97,52 -115,105 -28,87 -33,182 -6,271 12,39 63,165 119,140 14,-6 28,-20 39,-31z"/>
   <path class="fil14" d="M3391 4923c155,-148 257,-324 250,-637 -6,-288 -92,-546 -265,-655 88,428 315,647 93,1001 -97,157 -100,48 -78,291z"/>
   <path class="fil14" d="M3074 4261c-27,-174 -44,-342 -40,-518 -258,331 -174,773 -1,1123 4,8 24,48 33,48 10,0 32,-29 36,-40 59,-141 26,-306 0,-451 -9,-52 -19,-104 -27,-156l-1 -6z"/>
   <path class="fil17" d="M3234 4950c43,22 63,-23 71,-57 15,-60 41,-181 -34,-212 -57,-23 -72,43 -77,83 -9,68 -21,139 40,186z"/>
   <path class="fil16" d="M3171 4095c47,66 70,38 106,-20 60,-95 83,-211 56,-321 -15,-50 -51,-122 -101,-143 -41,-17 -64,29 -81,58 -80,137 -69,296 20,426z"/>
   <path class="fil6" d="M5784 3599c5,-35 29,-136 -38,-118 -22,5 -38,27 -53,44 -161,210 -152,256 -105,508 2,12 4,25 5,37l1 12c105,-53 79,-44 55,-155 -31,-150 -30,-229 108,-316 9,-5 18,-8 27,-12z"/>
  </g>
 </g>
</svg>
